<svg viewBox="573.4577 397.9996 381.5423 78" width="5000" height="1022.167135858855" xmlns="http://www.w3.org/2000/svg" xmlns:xlink="http://www.w3.org/1999/xlink" preserveAspectRatio="none"><defs></defs><style>.a3WKIowxM3fillColor {fill:#6684F7;fill-opacity:1;}.a3WKIowxM3strokeColor-str {stroke:#333333;stroke-opacity:1;}.aD6z1nYkhcolor {fill:#333333;fill-opacity:1;}.aD6z1nYkhstrokeColor-str {stroke:#2F90B0;stroke-opacity:1;}.aIptOCySncolors-0 {fill:#FFAD00;fill-opacity:1;}</style><g opacity="1" transform="rotate(0 575 399.5423)">
<svg width="74.9154" height="74.9154" x="575" y="399.5423" version="1.1" preserveAspectRatio="none" viewBox="0 0 74.9154 74.9154">
  <rect x="5" y="5" width="64.9154" height="64.9154" class="a3WKIowxM3fillColor a3WKIowxM3strokeColor-str" style="stroke-width:10;" rx="150px" ry="150px" />
</svg>
</g><g opacity="1" transform="rotate(-135 612.4577 475.9996)">
<svg width="55.1543" height="55.1543" x="612.4577" y="475.9996" version="1.1" preserveAspectRatio="none" viewBox="28 28 144 144">
  <g transform="matrix(1 0 0 1 0 0)" ><g><path d="M100 172c-39.701 0-72-32.299-72-72h23.905c0 26.52 21.575 48.095 48.095 48.095S148.095 126.52 148.095 100 126.52 51.905 100 51.905V28c39.701 0 72 32.299 72 72s-32.299 72-72 72z" data-color="1" class="aIptOCySncolors-0"></path><path d="M125.554 100c0 14.113-11.44 25.554-25.554 25.554-14.113 0-25.554-11.44-25.554-25.554 0-14.113 11.44-25.554 25.554-25.554 14.113 0 25.554 11.44 25.554 25.554z" data-color="2" class="aIptOCySncolors-0"></path></g></g>
</svg>
</g><g opacity="1" transform="rotate(0 666.3803 408.1864)">
<svg width="288.6197" height="57.6272" x="666.3803" y="408.1864" version="1.1" preserveAspectRatio="none" viewBox="2.36 -28.28 143.04 28.56">
  <g transform="matrix(1 0 0 1 0 0)" class="aD6z1nYkhcolor"><path id="id-D6z1nYkh6" d="M13.44-9.92L9.20-9.92L9.20 0L2.36 0L2.36-28.28L13.44-28.28Q18.48-28.28 21.12-25.78Q23.76-23.28 23.76-19.04L23.76-19.04Q23.76-16.40 22.58-14.34Q21.40-12.28 19.08-11.10Q16.76-9.92 13.44-9.92L13.44-9.92ZM12.68-15.40Q16.80-15.40 16.80-19.04L16.80-19.04Q16.80-22.76 12.68-22.76L12.68-22.76L9.20-22.76L9.20-15.40L12.68-15.40Z M34.76-18.12Q36.04-20.16 38.06-21.36Q40.08-22.56 42.44-22.56L42.44-22.56L42.44-15.24L40.48-15.24Q37.76-15.24 36.26-14.08Q34.76-12.92 34.76-10.16L34.76-10.16L34.76 0L27.92 0L27.92-22.32L34.76-22.32L34.76-18.12Z M56.56-22.60Q59.88-22.60 62.50-21.22Q65.12-19.84 66.62-17.24Q68.12-14.64 68.12-11.16L68.12-11.16Q68.12-7.68 66.62-5.08Q65.12-2.48 62.50-1.10Q59.88 0.28 56.56 0.28L56.56 0.28Q53.24 0.28 50.60-1.10Q47.96-2.48 46.46-5.08Q44.96-7.68 44.96-11.16L44.96-11.16Q44.96-14.64 46.46-17.24Q47.96-19.84 50.60-21.22Q53.24-22.60 56.56-22.60L56.56-22.60ZM56.56-16.68Q54.60-16.68 53.26-15.26Q51.92-13.84 51.92-11.16L51.92-11.16Q51.92-8.48 53.26-7.08Q54.60-5.68 56.56-5.68L56.56-5.68Q58.52-5.68 59.84-7.08Q61.16-8.48 61.16-11.16L61.16-11.16Q61.16-13.84 59.84-15.26Q58.52-16.68 56.56-16.68L56.56-16.68Z M93.68-11.76Q93.68-10.92 93.48-9.92L93.48-9.92L78-9.92Q78.12-7.40 79.28-6.30Q80.44-5.20 82.24-5.20L82.24-5.20Q83.76-5.20 84.76-5.96Q85.76-6.72 86.08-7.92L86.08-7.92L93.32-7.92Q92.88-5.56 91.40-3.70Q89.92-1.84 87.64-0.78Q85.36 0.28 82.56 0.28L82.56 0.28Q79.28 0.28 76.74-1.10Q74.20-2.48 72.76-5.08Q71.32-7.68 71.32-11.16L71.32-11.16Q71.32-14.68 72.74-17.26Q74.16-19.84 76.72-21.22Q79.28-22.60 82.56-22.60L82.56-22.60Q85.88-22.60 88.40-21.24Q90.92-19.88 92.30-17.42Q93.68-14.96 93.68-11.76L93.68-11.76ZM86.76-12.80Q86.80-15 85.58-16.10Q84.36-17.20 82.56-17.20L82.56-17.20Q80.68-17.20 79.44-16.08Q78.20-14.96 78.04-12.80L78.04-12.80L86.76-12.80Z M108.12-22.60Q112.44-22.60 115.36-20.22Q118.28-17.84 119.04-13.68L119.04-13.68L111.80-13.68Q111.48-15.12 110.48-15.92Q109.48-16.72 107.96-16.72L107.96-16.72Q106.16-16.72 105-15.30Q103.84-13.88 103.84-11.16L103.84-11.16Q103.84-8.44 105-7.02Q106.16-5.60 107.96-5.60L107.96-5.60Q109.48-5.60 110.48-6.40Q111.48-7.20 111.80-8.64L111.80-8.64L119.04-8.64Q118.28-4.48 115.36-2.10Q112.44 0.28 108.12 0.28L108.12 0.28Q104.84 0.28 102.30-1.10Q99.76-2.48 98.32-5.08Q96.88-7.68 96.88-11.16L96.88-11.16Q96.88-14.68 98.30-17.26Q99.72-19.84 102.28-21.22Q104.84-22.60 108.12-22.60L108.12-22.60Z M133.84-22.60Q137.16-22.60 139.78-21.22Q142.40-19.84 143.90-17.24Q145.40-14.64 145.40-11.16L145.40-11.16Q145.40-7.68 143.90-5.08Q142.40-2.48 139.78-1.10Q137.16 0.28 133.84 0.28L133.84 0.28Q130.52 0.28 127.88-1.10Q125.24-2.48 123.74-5.08Q122.24-7.68 122.24-11.16L122.24-11.16Q122.24-14.64 123.74-17.24Q125.24-19.84 127.88-21.22Q130.52-22.60 133.84-22.60L133.84-22.60ZM133.84-16.68Q131.88-16.68 130.54-15.26Q129.20-13.84 129.20-11.16L129.20-11.16Q129.20-8.48 130.54-7.08Q131.88-5.68 133.84-5.68L133.84-5.68Q135.80-5.68 137.12-7.08Q138.44-8.48 138.44-11.16L138.44-11.16Q138.44-13.84 137.12-15.26Q135.80-16.68 133.84-16.68L133.84-16.68Z"/></g>
</svg>
</g></svg>